<?xml version="1.0" standalone="yes"?>
<svg xmlns="http://www.w3.org/2000/svg" width="1024" height="1024">
<path style="fill:#050608; stroke:none;" d="M0 0L0 1024L1024 1024L1024 0L0 0z"/>
<path style="fill:#ddd3c8; stroke:none;" d="M503 219L503 220L510 220L503 219M522 219L522 220L525 220L522 219M491.667 220.333L492.333 220.667L491.667 220.333M496.667 220.333L497.333 220.667L496.667 220.333z"/>
<path style="fill:#a2a1a4; stroke:none;" d="M498 220L498 221L503 221L498 220z"/>
<path style="fill:#bf500a; stroke:none;" d="M503.667 220.333L504.333 220.667L503.667 220.333M524.667 220.333L525.333 220.667L524.667 220.333z"/>
<path style="fill:#a2a1a4; stroke:none;" d="M526 220L526 221L531 221L526 220z"/>
<path style="fill:#ddd3c8; stroke:none;" d="M531.667 220.333L532.333 220.667L531.667 220.333M535 220L535 221L538 221L535 220M483 221L484 222L483 221M486 221L487 222L486 221z"/>
<path style="fill:#a2a1a4; stroke:none;" d="M487 221L487 222L490 222L487 221z"/>
<path style="fill:#bf500a; stroke:none;" d="M490 221L491 222L490 221M537.667 221.333L538.333 221.667L537.667 221.333z"/>
<path style="fill:#a2a1a4; stroke:none;" d="M539.667 221.333L540.333 221.667L539.667 221.333z"/>
<path style="fill:#ddd3c8; stroke:none;" d="M541.667 221.333L542.333 221.667L541.667 221.333M544 221L544 222L548 222L544 221M475.667 222.333L476.333 222.667L475.667 222.333M478 222L479 223L478 222z"/>
<path style="fill:#a2a1a4; stroke:none;" d="M479.667 222.333L480.333 222.667L479.667 222.333z"/>
<path style="fill:#bf500a; stroke:none;" d="M481 222L482 223L481 222M547 222L548 223L547 222z"/>
<path style="fill:#a2a1a4; stroke:none;" d="M548.667 222.333L549.333 222.667L548.667 222.333z"/>
<path style="fill:#ddd3c8; stroke:none;" d="M550 222L550 223L554 223L550 222M469 223L469 224L473 224L469 223z"/>
<path style="fill:#a2a1a4; stroke:none;" d="M473.667 223.333L474.333 223.667L473.667 223.333z"/>
<path style="fill:#bf500a; stroke:none;" d="M553 223L554 224L553 223z"/>
<path style="fill:#a2a1a4; stroke:none;" d="M554.667 223.333L555.333 223.667L554.667 223.333z"/>
<path style="fill:#ddd3c8; stroke:none;" d="M556 223L557 224L556 223M558.667 223.333L559.333 223.667L558.667 223.333M462 225L462 226L466 225L462 225M467 224L468 225L467 224z"/>
<path style="fill:#a2a1a4; stroke:none;" d="M468 224L469 225L468 224z"/>
<path style="fill:#bf500a; stroke:none;" d="M469 224L470 225L469 224z"/>
<path style="fill:#a2a1a4; stroke:none;" d="M560.667 224.333L561.333 224.667L560.667 224.333z"/>
<path style="fill:#ddd3c8; stroke:none;" d="M562 224L562 225L571 226L562 224M459.667 225.333L460.333 225.667L459.667 225.333z"/>
<path style="fill:#a2a1a4; stroke:none;" d="M463 225L464 226L463 225z"/>
<path style="fill:#bf500a; stroke:none;" d="M464 225L465 226L464 225z"/>
<path style="fill:#a2a1a4; stroke:none;" d="M565.667 225.333L566.333 225.667L565.667 225.333z"/>
<path style="fill:#ddd3c8; stroke:none;" d="M455 226L456 227L455 226M457 226L458 227L457 226z"/>
<path style="fill:#a2a1a4; stroke:none;" d="M458 226L459 227L458 226z"/>
<path style="fill:#bf500a; stroke:none;" d="M459 226L460 227L459 226M570 226L571 227L570 226z"/>
<path style="fill:#a2a1a4; stroke:none;" d="M571 226L572 227L571 226z"/>
<path style="fill:#ddd3c8; stroke:none;" d="M573.667 226.333L574.333 226.667L573.667 226.333M451 227L452 228L451 227z"/>
<path style="fill:#a2a1a4; stroke:none;" d="M453.667 227.333L454.333 227.667L453.667 227.333z"/>
<path style="fill:#bf500a; stroke:none;" d="M574 227L575 228L574 227z"/>
<path style="fill:#a2a1a4; stroke:none;" d="M575 227L576 228L575 227z"/>
<path style="fill:#ddd3c8; stroke:none;" d="M576 227L576 228L579 228L576 227M447 228L448 229L447 228z"/>
<path style="fill:#a2a1a4; stroke:none;" d="M449.667 228.333L450.333 228.667L449.667 228.333z"/>
<path style="fill:#bf500a; stroke:none;" d="M578 228L579 229L578 228z"/>
<path style="fill:#a2a1a4; stroke:none;" d="M579 228L580 229L579 228z"/>
<path style="fill:#ddd3c8; stroke:none;" d="M581 228L582 229L581 228M443 229L444 230L443 229z"/>
<path style="fill:#a2a1a4; stroke:none;" d="M445.667 229.333L446.333 229.667L445.667 229.333z"/>
<path style="fill:#bf500a; stroke:none;" d="M582 229L583 230L582 229z"/>
<path style="fill:#a2a1a4; stroke:none;" d="M583 229L584 230L583 229z"/>
<path style="fill:#ddd3c8; stroke:none;" d="M585 229L585 230L590 231L590 230L585 229M438 231L438 232L442 231L438 231z"/>
<path style="fill:#a2a1a4; stroke:none;" d="M442 230L443 231L442 230M586 230L587 231L586 230z"/>
<path style="fill:#ddd3c8; stroke:none;" d="M436 231L437 232L436 231z"/>
<path style="fill:#a2a1a4; stroke:none;" d="M439 231L440 232L439 231z"/>
<path style="fill:#bf500a; stroke:none;" d="M589 231L590 232L589 231z"/>
<path style="fill:#a2a1a4; stroke:none;" d="M590 231L591 232L590 231z"/>
<path style="fill:#ddd3c8; stroke:none;" d="M592 231L593 232L592 231M432.667 232.333L433.333 232.667L432.667 232.333z"/>
<path style="fill:#a2a1a4; stroke:none;" d="M435 232L436 233L435 232z"/>
<path style="fill:#bf500a; stroke:none;" d="M436 232L437 233L436 232z"/>
<path style="fill:#a2a1a4; stroke:none;" d="M593 232L594 233L593 232z"/>
<path style="fill:#ddd3c8; stroke:none;" d="M595 232L596 233L595 232M424 235L424 236L431 234L424 235z"/>
<path style="fill:#a2a1a4; stroke:none;" d="M432 233L433 234L432 233M596 233L597 234L596 233z"/>
<path style="fill:#ddd3c8; stroke:none;" d="M597 233L597 234L600 234L597 233z"/>
<path style="fill:#a2a1a4; stroke:none;" d="M429 234L430 235L429 234M599 234L600 235L599 234z"/>
<path style="fill:#ddd3c8; stroke:none;" d="M601.667 234.333L602.333 234.667L601.667 234.333z"/>
<path style="fill:#a2a1a4; stroke:none;" d="M426 235L427 236L426 235M602 235L603 236L602 235z"/>
<path style="fill:#ddd3c8; stroke:none;" d="M604 235L605 236L604 235M420 236L420 237L423 237L420 236z"/>
<path style="fill:#a2a1a4; stroke:none;" d="M423 236L424 237L423 236M605 236L606 237L605 236z"/>
<path style="fill:#ddd3c8; stroke:none;" d="M607 236L608 237L607 236M418 237L419 238L418 237z"/>
<path style="fill:#a2a1a4; stroke:none;" d="M420 237L421 238L420 237z"/>
<path style="fill:#bf500a; stroke:none;" d="M607 237L608 238L607 237z"/>
<path style="fill:#a2a1a4; stroke:none;" d="M608 237L609 238L608 237z"/>
<path style="fill:#ddd3c8; stroke:none;" d="M609 237L609 238L618 241L618 240L609 237M415 238L416 239L415 238z"/>
<path style="fill:#a2a1a4; stroke:none;" d="M417 238L418 239L417 238z"/>
<path style="fill:#bf500a; stroke:none;" d="M610 238L611 239L610 238z"/>
<path style="fill:#ddd3c8; stroke:none;" d="M413 239L414 240L413 239z"/>
<path style="fill:#a2a1a4; stroke:none;" d="M415 239L416 240L415 239M613 239L614 240L613 239z"/>
<path style="fill:#ddd3c8; stroke:none;" d="M408 241L408 242L412 241L408 241z"/>
<path style="fill:#a2a1a4; stroke:none;" d="M412 240L413 241L412 240z"/>
<path style="fill:#bf500a; stroke:none;" d="M615 240L616 241L615 240M410 241L411 242L410 241z"/>
<path style="fill:#a2a1a4; stroke:none;" d="M618 241L619 242L618 241z"/>
<path style="fill:#ddd3c8; stroke:none;" d="M619 241L619 242L625 244L625 243L619 241z"/>
<path style="fill:#a2a1a4; stroke:none;" d="M407 242L408 243L407 242M620 242L621 243L620 242z"/>
<path style="fill:#ddd3c8; stroke:none;" d="M401 244L401 245L405 244L401 244z"/>
<path style="fill:#a2a1a4; stroke:none;" d="M405 243L406 244L405 243z"/>
<path style="fill:#bf500a; stroke:none;" d="M622 243L623 244L622 243M403 244L404 245L403 244z"/>
<path style="fill:#ddd3c8; stroke:none;" d="M625.667 244.333L626.333 244.667L625.667 244.333M399 245L400 246L399 245z"/>
<path style="fill:#a2a1a4; stroke:none;" d="M400 245L401 246L400 245M627 245L628 246L627 245z"/>
<path style="fill:#ddd3c8; stroke:none;" d="M628 245L629 246L628 245z"/>
<path style="fill:#a2a1a4; stroke:none;" d="M398 246L399 247L398 246M629 246L630 247L629 246z"/>
<path style="fill:#ddd3c8; stroke:none;" d="M630 246L631 247L630 246M394 247L395 248L394 247z"/>
<path style="fill:#a2a1a4; stroke:none;" d="M396 247L397 248L396 247M631 247L632 248L631 247z"/>
<path style="fill:#ddd3c8; stroke:none;" d="M632 247L632 248L635 249L632 247M392 248L393 249L392 248z"/>
<path style="fill:#a2a1a4; stroke:none;" d="M394 248L395 249L394 248M633 248L634 249L633 248z"/>
<path style="fill:#ddd3c8; stroke:none;" d="M390 249L391 250L390 249z"/>
<path style="fill:#a2a1a4; stroke:none;" d="M392 249L393 250L392 249M635 249L636 250L635 249z"/>
<path style="fill:#ddd3c8; stroke:none;" d="M636 249L636 250L643 253L643 252L636 249M388 250L389 251L388 250z"/>
<path style="fill:#bf500a; stroke:none;" d="M390 250L391 251L390 250z"/>
<path style="fill:#a2a1a4; stroke:none;" d="M637 250L638 251L637 250z"/>
<path style="fill:#ddd3c8; stroke:none;" d="M386 251L383 253L383 254L387 252L386 251z"/>
<path style="fill:#bf500a; stroke:none;" d="M388 251L389 252L388 251z"/>
<path style="fill:#a2a1a4; stroke:none;" d="M639 251L640 252L639 251M386 252L387 253L386 252M641 252L642 253L641 252M384 253L385 254L384 253M643 253L644 254L643 253z"/>
<path style="fill:#ddd3c8; stroke:none;" d="M644 253L645 254L644 253M381 254L382 255L381 254z"/>
<path style="fill:#a2a1a4; stroke:none;" d="M382 254L383 255L382 254z"/>
<path style="fill:#ddd3c8; stroke:none;" d="M645.667 254.333L646.333 254.667L645.667 254.333M379.667 255.333L380.333 255.667L379.667 255.333z"/>
<path style="fill:#bf500a; stroke:none;" d="M646 255L647 256L646 255z"/>
<path style="fill:#ddd3c8; stroke:none;" d="M377 256L375 257L375 258L377 256z"/>
<path style="fill:#a2a1a4; stroke:none;" d="M648 256L649 257L648 256z"/>
<path style="fill:#ddd3c8; stroke:none;" d="M649 256L650 257L649 256z"/>
<path style="fill:#bf500a; stroke:none;" d="M377 257L378 258L377 257z"/>
<path style="fill:#a2a1a4; stroke:none;" d="M650 257L651 258L650 257z"/>
<path style="fill:#ddd3c8; stroke:none;" d="M651 257L652 258L651 257z"/>
<path style="fill:#a2a1a4; stroke:none;" d="M375 258L376 259L375 258z"/>
<path style="fill:#ddd3c8; stroke:none;" d="M652.667 258.333L653.333 258.667L652.667 258.333M372 259L370 260L370 261L372 259z"/>
<path style="fill:#a2a1a4; stroke:none;" d="M373 259L374 260L373 259z"/>
<path style="fill:#bf500a; stroke:none;" d="M653 259L654 260L653 259z"/>
<path style="fill:#a2a1a4; stroke:none;" d="M655 260L656 261L655 260z"/>
<path style="fill:#ddd3c8; stroke:none;" d="M656 260L657 261L656 260M368 261L364 264L364 265L368 261z"/>
<path style="fill:#bf500a; stroke:none;" d="M370 261L371 262L370 261z"/>
<path style="fill:#ddd3c8; stroke:none;" d="M657 261L657 262L660 263L657 261z"/>
<path style="fill:#a2a1a4; stroke:none;" d="M368 262L369 263L368 262z"/>
<path style="fill:#bf500a; stroke:none;" d="M658 262L659 263L658 262z"/>
<path style="fill:#a2a1a4; stroke:none;" d="M660 263L661 264L660 263z"/>
<path style="fill:#ddd3c8; stroke:none;" d="M661 263L662 264L661 263z"/>
<path style="fill:#bf500a; stroke:none;" d="M365 264L366 265L365 264z"/>
<path style="fill:#ddd3c8; stroke:none;" d="M362 265L363 266L362 265z"/>
<path style="fill:#a2a1a4; stroke:none;" d="M363 265L364 266L363 265M663 265L664 266L663 265z"/>
<path style="fill:#ddd3c8; stroke:none;" d="M664 265L665 266L664 265z"/>
<path style="fill:#bf500a; stroke:none;" d="M362 266L363 267L362 266z"/>
<path style="fill:#ddd3c8; stroke:none;" d="M359 267L358 269L359 267z"/>
<path style="fill:#a2a1a4; stroke:none;" d="M360 267L361 268L360 267M666 267L667 268L666 267z"/>
<path style="fill:#ddd3c8; stroke:none;" d="M667 267L668 268L667 267M668 268L669 269L668 268M356 269L357 270L356 269z"/>
<path style="fill:#a2a1a4; stroke:none;" d="M357 269L358 270L357 269M669 269L670 270L669 269z"/>
<path style="fill:#ddd3c8; stroke:none;" d="M670 269L672 271L670 269z"/>
<path style="fill:#bf500a; stroke:none;" d="M670 270L671 271L670 270z"/>
<path style="fill:#ddd3c8; stroke:none;" d="M353 271L348 276L353 271z"/>
<path style="fill:#a2a1a4; stroke:none;" d="M354 271L355 272L354 271z"/>
<path style="fill:#ddd3c8; stroke:none;" d="M672 271L672 272L675 273L672 271z"/>
<path style="fill:#bf500a; stroke:none;" d="M353 272L354 273L353 272M673 272L674 273L673 272z"/>
<path style="fill:#ddd3c8; stroke:none;" d="M675 273L676 274L675 273z"/>
<path style="fill:#a2a1a4; stroke:none;" d="M350 274L351 275L350 274M676 274L677 275L676 274z"/>
<path style="fill:#ddd3c8; stroke:none;" d="M677 274L679 276L677 274z"/>
<path style="fill:#bf500a; stroke:none;" d="M677 275L678 276L677 275z"/>
<path style="fill:#ddd3c8; stroke:none;" d="M346 276L345 278L346 276z"/>
<path style="fill:#a2a1a4; stroke:none;" d="M347 276L348 277L347 276z"/>
<path style="fill:#ddd3c8; stroke:none;" d="M679 276L680 277L679 276z"/>
<path style="fill:#bf500a; stroke:none;" d="M346 277L347 278L346 277z"/>
<path style="fill:#a2a1a4; stroke:none;" d="M680 277L681 278L680 277z"/>
<path style="fill:#ddd3c8; stroke:none;" d="M681 277L683 279L681 277z"/>
<path style="fill:#bf500a; stroke:none;" d="M681 278L682 279L681 278z"/>
<path style="fill:#ddd3c8; stroke:none;" d="M342 279L341 281L342 279z"/>
<path style="fill:#a2a1a4; stroke:none;" d="M343 279L344 280L343 279z"/>
<path style="fill:#ddd3c8; stroke:none;" d="M683 279L684 280L683 279z"/>
<path style="fill:#bf500a; stroke:none;" d="M342 280L343 281L342 280z"/>
<path style="fill:#ddd3c8; stroke:none;" d="M684 280L684 281L688 283L684 280M339 281L335 286L339 281z"/>
<path style="fill:#a2a1a4; stroke:none;" d="M685 281L686 282L685 281M339 282L340 283L339 282z"/>
<path style="fill:#bf500a; stroke:none;" d="M686 282L687 283L686 282z"/>
<path style="fill:#a2a1a4; stroke:none;" d="M338 283L339 284L338 283z"/>
<path style="fill:#ddd3c8; stroke:none;" d="M689 284L689 285L694 288L689 284z"/>
<path style="fill:#a2a1a4; stroke:none;" d="M690 285L691 286L690 285z"/>
<path style="fill:#ddd3c8; stroke:none;" d="M333 286L331 289L333 286z"/>
<path style="fill:#a2a1a4; stroke:none;" d="M334 286L335 287L334 286z"/>
<path style="fill:#bf500a; stroke:none;" d="M691 286L692 287L691 286z"/>
<path style="fill:#a2a1a4; stroke:none;" d="M333 287L334 288L333 287z"/>
<path style="fill:#bf500a; stroke:none;" d="M332 288L333 289L332 288z"/>
<path style="fill:#ddd3c8; stroke:none;" d="M330 289L331 290L330 289M695 289L696 290L695 289z"/>
<path style="fill:#a2a1a4; stroke:none;" d="M696 290L697 291L696 290z"/>
<path style="fill:#ddd3c8; stroke:none;" d="M320 299L329 292L320 299z"/>
<path style="fill:#a2a1a4; stroke:none;" d="M697 291L699 293L697 291z"/>
<path style="fill:#ddd3c8; stroke:none;" d="M698 291L699 292L698 291z"/>
<path style="fill:#a2a1a4; stroke:none;" d="M327 292L328 293L327 292z"/>
<path style="fill:#ddd3c8; stroke:none;" d="M699 292L701 294L699 292z"/>
<path style="fill:#bf500a; stroke:none;" d="M326 293L327 294L326 293M699 293L700 294L699 293z"/>
<path style="fill:#ddd3c8; stroke:none;" d="M701 294L702 295L701 294M702 295L703 296L702 295M704 297L704 298L716 308L704 297M318 299L312 306L318 299z"/>
<path style="fill:#a2a1a4; stroke:none;" d="M319 299L320 300L319 299M706 299L707 300L706 299M318 300L319 301L318 300z"/>
<path style="fill:#bf500a; stroke:none;" d="M418 300L419 301L418 300z"/>
<path style="fill:#a2a1a4; stroke:none;" d="M707 300L708 301L707 300M317 301L318 302L317 301M708 301L709 302L708 301M316 302L317 303L316 302M709 302L710 303L709 302M315 303L316 304L315 303M710 303L711 304L710 303M314 304L315 305L314 304M711 304L712 305L711 304M313 305L314 306L313 305M712 305L713 306L712 305M312 306L313 307L312 306M713 306L714 307L713 306M311 307L312 308L311 307M714 307L715 308L714 307z"/>
<path style="fill:#ddd3c8; stroke:none;" d="M310 308L311 309L310 308z"/>
<path style="fill:#a2a1a4; stroke:none;" d="M715 308L716 309L715 308z"/>
<path style="fill:#ddd3c8; stroke:none;" d="M309 309L310 310L309 309z"/>
<path style="fill:#bf500a; stroke:none;" d="M608 309L609 310L608 309M612 309L613 310L612 309z"/>
<path style="fill:#a2a1a4; stroke:none;" d="M716 309L717 310L716 309z"/>
<path style="fill:#ddd3c8; stroke:none;" d="M717 310L718 311L717 310z"/>
<path style="fill:#bf500a; stroke:none;" d="M423 311L424 312L423 311z"/>
<path style="fill:#ddd3c8; stroke:none;" d="M718 311L719 312L718 311M304 312L301 318L307 312L304 312M721 314L726 321L727 321L721 314z"/>
<path style="fill:#bf500a; stroke:none;" d="M304 315L305 316L304 315M303 316L304 317L303 316z"/>
<path style="fill:#a2a1a4; stroke:none;" d="M302 317L303 318L302 317z"/>
<path style="fill:#bf500a; stroke:none;" d="M419 317L420 318L419 317M723 317L724 318L723 317z"/>
<path style="fill:#a2a1a4; stroke:none;" d="M301 318L302 319L301 318z"/>
<path style="fill:#bf500a; stroke:none;" d="M411 318L412 319L411 318M417 318L418 319L417 318z"/>
<path style="fill:#a2a1a4; stroke:none;" d="M724 318L725 319L724 318M725 319L726 320L725 319z"/>
<path style="fill:#ddd3c8; stroke:none;" d="M299 320L296 324L299 320M728 322L731 327L732 327L728 322z"/>
<path style="fill:#bf500a; stroke:none;" d="M297 323L298 324L297 323z"/>
<path style="fill:#a2a1a4; stroke:none;" d="M296 324L297 325L296 324z"/>
<path style="fill:#bf500a; stroke:none;" d="M729 324L730 325L729 324z"/>
<path style="fill:#ddd3c8; stroke:none;" d="M295 325L296 326L295 325z"/>
<path style="fill:#bf500a; stroke:none;" d="M604 325L605 326L604 325z"/>
<path style="fill:#a2a1a4; stroke:none;" d="M730 325L731 326L730 325z"/>
<path style="fill:#ddd3c8; stroke:none;" d="M294 326L295 327L294 326M293 327L292 329L293 327z"/>
<path style="fill:#bf500a; stroke:none;" d="M293 328L294 329L293 328z"/>
<path style="fill:#ddd3c8; stroke:none;" d="M733 328L734 329L733 328z"/>
<path style="fill:#a2a1a4; stroke:none;" d="M292 329L293 330L292 329M733 329L734 330L733 329M734 330L735 331L734 330z"/>
<path style="fill:#ddd3c8; stroke:none;" d="M290 331L289 333L290 331M736 332L738 334L738 332L736 332z"/>
<path style="fill:#a2a1a4; stroke:none;" d="M289 333L290 334L289 333z"/>
<path style="fill:#bf500a; stroke:none;" d="M736 333L737 334L736 333z"/>
<path style="fill:#ddd3c8; stroke:none;" d="M288 334L289 335L288 334z"/>
<path style="fill:#a2a1a4; stroke:none;" d="M737 334L738 335L737 334z"/>
<path style="fill:#ddd3c8; stroke:none;" d="M287 335L288 336L287 335M738 335L739 336L738 335M286 336L287 337L286 336M739 336L740 337L739 336z"/>
<path style="fill:#a2a1a4; stroke:none;" d="M286 337L287 338L286 337M739 337L740 338L739 337z"/>
<path style="fill:#ddd3c8; stroke:none;" d="M740 338L743 341L740 338M284 339L285 340L284 339z"/>
<path style="fill:#a2a1a4; stroke:none;" d="M284 340L285 341L284 340z"/>
<path style="fill:#bf500a; stroke:none;" d="M741 340L742 341L741 340z"/>
<path style="fill:#ddd3c8; stroke:none;" d="M283 341L284 342L283 341z"/>
<path style="fill:#a2a1a4; stroke:none;" d="M742 341L743 342L742 341z"/>
<path style="fill:#ddd3c8; stroke:none;" d="M282 342L281 344L282 342z"/>
<path style="fill:#bf500a; stroke:none;" d="M282 343L283 344L282 343M348 343L348 344L353 344L348 343z"/>
<path style="fill:#e58c16; stroke:none;" d="M352.985 343.733C342.109 343.535 332.841 352.195 332.097 363C331.548 370.973 335.636 382.124 345 382.681C357.948 383.452 363.032 366.06 361.816 356C361.174 350.7 359.274 343.848 352.985 343.733z"/>
<path style="fill:#bf500a; stroke:none;" d="M354 343L354 344L357 344L354 343z"/>
<path style="fill:#a2a1a4; stroke:none;" d="M281 344L282 345L281 344z"/>
<path style="fill:#bf500a; stroke:none;" d="M345.667 344.333L346.333 344.667L345.667 344.333M358 344C362.056 358.86 364.646 379.317 344 383L344 384C351.72 385.765 359.003 387.445 365.907 382.2C380.414 371.178 374.453 348.751 358 344z"/>
<path style="fill:#a2a1a4; stroke:none;" d="M744 344L745 345L744 344z"/>
<path style="fill:#ddd3c8; stroke:none;" d="M280 345L279 347L280 345z"/>
<path style="fill:#bf500a; stroke:none;" d="M343 345L344 346L343 345M280 346L281 347L280 346M745 346L746 347L745 346z"/>
<path style="fill:#ddd3c8; stroke:none;" d="M746.667 346.333L747.333 346.667L746.667 346.333z"/>
<path style="fill:#a2a1a4; stroke:none;" d="M279 347L280 348L279 347z"/>
<path style="fill:#bf500a; stroke:none;" d="M340 347L341 348L340 347z"/>
<path style="fill:#a2a1a4; stroke:none;" d="M746 347L747 348L746 347z"/>
<path style="fill:#ddd3c8; stroke:none;" d="M278 348L277 351L278 351L278 348z"/>
<path style="fill:#bf500a; stroke:none;" d="M339 348L340 349L339 348M278 349L279 350L278 349M656 349L657 350L656 349z"/>
<path style="fill:#a2a1a4; stroke:none;" d="M657 349L658 350L657 349M665 349L666 350L665 349z"/>
<path style="fill:#bf500a; stroke:none;" d="M666 349L667 350L666 349M747 349L748 350L747 349M337 350L338 351L337 350z"/>
<path style="fill:#a2a1a4; stroke:none;" d="M653 350L654 351L653 350M669 350L670 351L669 350z"/>
<path style="fill:#ddd3c8; stroke:none;" d="M748 350L749 351L748 350M276 351L277 352L276 351z"/>
<path style="fill:#bf500a; stroke:none;" d="M336 351L337 352L336 351z"/>
<path style="fill:#ddd3c8; stroke:none;" d="M749 351L750 352L749 351z"/>
<path style="fill:#a2a1a4; stroke:none;" d="M276 352L277 353L276 352z"/>
<path style="fill:#bf500a; stroke:none;" d="M335 352L336 353L335 352z"/>
<path style="fill:#a2a1a4; stroke:none;" d="M649 352L650 353L649 352M749 352L750 353L749 352z"/>
<path style="fill:#ddd3c8; stroke:none;" d="M275 353L276 354L275 353z"/>
<path style="fill:#bf500a; stroke:none;" d="M675 353L676 354L675 353z"/>
<path style="fill:#ddd3c8; stroke:none;" d="M750 353L751 354L750 353M274 354L275 355L274 354z"/>
<path style="fill:#a2a1a4; stroke:none;" d="M676 354L677 355L676 354z"/>
<path style="fill:#bf500a; stroke:none;" d="M750 354L751 355L750 354z"/>
<path style="fill:#a2a1a4; stroke:none;" d="M274 355L275 356L274 355z"/>
<path style="fill:#bf500a; stroke:none;" d="M645 355L646 356L645 355z"/>
<path style="fill:#a2a1a4; stroke:none;" d="M751 355L752 356L751 355z"/>
<path style="fill:#ddd3c8; stroke:none;" d="M273 356L274 357L273 356z"/>
<path style="fill:#bf500a; stroke:none;" d="M333 356L334 357L333 356z"/>
<path style="fill:#ddd3c8; stroke:none;" d="M753 356L754 357L753 356M272 357L273 358L272 357z"/>
<path style="fill:#a2a1a4; stroke:none;" d="M679 357L680 358L679 357M752 357L753 358L752 357M272 358L273 359L272 358z"/>
<path style="fill:#bf500a; stroke:none;" d="M332.333 358.667L332.667 359.333L332.333 358.667z"/>
<path style="fill:#ddd3c8; stroke:none;" d="M753 358L754 361L755 361L755 358L753 358z"/>
<path style="fill:#bf500a; stroke:none;" d="M642 359L643 360L642 359z"/>
<path style="fill:#ddd3c8; stroke:none;" d="M270 360L271 361L270 360z"/>
<path style="fill:#bf500a; stroke:none;" d="M271 360L272 361L271 360z"/>
<path style="fill:#a2a1a4; stroke:none;" d="M681 360L682 361L681 360M641 361L642 362L641 361z"/>
<path style="fill:#ddd3c8; stroke:none;" d="M269 362L268 365L269 362z"/>
<path style="fill:#bf500a; stroke:none;" d="M331 362L331 367L332 367L331 362z"/>
<path style="fill:#a2a1a4; stroke:none;" d="M682 362L683 363L682 362M755 362L756 363L755 362z"/>
<path style="fill:#bf500a; stroke:none;" d="M640 363L641 364L640 363M683 364L684 365L683 364z"/>
<path style="fill:#a2a1a4; stroke:none;" d="M756 364L757 365L756 364M268 365L269 366L268 365M683 365L684 366L683 365M757 366L758 367L757 366z"/>
<path style="fill:#ddd3c8; stroke:none;" d="M266 367L267 368L266 367z"/>
<path style="fill:#a2a1a4; stroke:none;" d="M267 367L268 368L267 367z"/>
<path style="fill:#bf500a; stroke:none;" d="M639 367L640 368L639 367z"/>
<path style="fill:#ddd3c8; stroke:none;" d="M758 367L759 368L758 367z"/>
<path style="fill:#a2a1a4; stroke:none;" d="M639 368L639 371L640 371L639 368M758 368L759 369L758 368z"/>
<path style="fill:#ddd3c8; stroke:none;" d="M265 369L263 374L264 374L265 369z"/>
<path style="fill:#bf500a; stroke:none;" d="M266 369L267 370L266 369M332.333 369.667L332.667 370.333L332.333 369.667z"/>
<path style="fill:#ddd3c8; stroke:none;" d="M759 369L760 370L759 369z"/>
<path style="fill:#bf500a; stroke:none;" d="M684.333 370.667L684.667 371.333L684.333 370.667M759 370L760 371L759 370z"/>
<path style="fill:#ddd3c8; stroke:none;" d="M760 371L761 372L760 371z"/>
<path style="fill:#a2a1a4; stroke:none;" d="M639.333 372.667L639.667 373.333L639.333 372.667z"/>
<path style="fill:#bf500a; stroke:none;" d="M760 372L761 373L760 372M333 373L334 374L333 373z"/>
<path style="fill:#ddd3c8; stroke:none;" d="M761 373L762 376L763 376L761 373z"/>
<path style="fill:#a2a1a4; stroke:none;" d="M263 374L264 375L263 374z"/>
<path style="fill:#bf500a; stroke:none;" d="M639 374L640 375L639 374M761 374L762 375L761 374z"/>
<path style="fill:#ddd3c8; stroke:none;" d="M262 375L263 376L262 375z"/>
<path style="fill:#bf500a; stroke:none;" d="M334 375L335 376L334 375z"/>
<path style="fill:#a2a1a4; stroke:none;" d="M262 376L263 377L262 376z"/>
<path style="fill:#ddd3c8; stroke:none;" d="M261 377L262 378L261 377z"/>
<path style="fill:#bf500a; stroke:none;" d="M683 377L684 378L683 377z"/>
<path style="fill:#ddd3c8; stroke:none;" d="M763 377L764 378L763 377z"/>
<path style="fill:#a2a1a4; stroke:none;" d="M261 378L262 379L261 378M640 378L641 379L640 378z"/>
<path style="fill:#bf500a; stroke:none;" d="M763 378L764 379L763 378z"/>
<path style="fill:#ddd3c8; stroke:none;" d="M260 379L261 380L260 379z"/>
<path style="fill:#bf500a; stroke:none;" d="M337 379L338 380L337 379z"/>
<path style="fill:#ddd3c8; stroke:none;" d="M764 379L765 380L764 379z"/>
<path style="fill:#a2a1a4; stroke:none;" d="M260 380L261 381L260 380z"/>
<path style="fill:#bf500a; stroke:none;" d="M682 380L683 381L682 380z"/>
<path style="fill:#a2a1a4; stroke:none;" d="M764 380L765 381L764 380z"/>
<path style="fill:#bf500a; stroke:none;" d="M340 381L341 382L340 381M641 381L642 382L641 381z"/>
<path style="fill:#ddd3c8; stroke:none;" d="M259 382L257 386L258 386L259 382z"/>
<path style="fill:#bf500a; stroke:none;" d="M342 382L343 383L342 382z"/>
<path style="fill:#a2a1a4; stroke:none;" d="M765 382L766 383L765 382M680 383L681 384L680 383M643 384L644 385L643 384M766 384L767 385L766 384z"/>
<path style="fill:#bf500a; stroke:none;" d="M258 385L259 386L258 385z"/>
<path style="fill:#ddd3c8; stroke:none;" d="M767 386L768 387L767 386M256.333 387.667L256.667 388.333L256.333 387.667z"/>
<path style="fill:#bf500a; stroke:none;" d="M257 387L258 388L257 387M677 387L678 388L677 387M767 387L768 388L767 387z"/>
<path style="fill:#a2a1a4; stroke:none;" d="M256 389L257 390L256 389M648 389L649 390L648 389M768 389L769 390L768 389M673 390L674 391L673 390M255 391L256 392L255 391z"/>
<path style="fill:#bf500a; stroke:none;" d="M651 391L652 392L651 391z"/>
<path style="fill:#a2a1a4; stroke:none;" d="M671 391L672 392L671 391M769 391L770 392L769 391z"/>
<path style="fill:#ddd3c8; stroke:none;" d="M254 392L253 395L254 392z"/>
<path style="fill:#a2a1a4; stroke:none;" d="M669 392L670 393L669 392z"/>
<path style="fill:#bf500a; stroke:none;" d="M769 392L770 393L769 392z"/>
<path style="fill:#a2a1a4; stroke:none;" d="M657 393L658 394L657 393M666 393L667 394L666 393z"/>
<path style="fill:#ddd3c8; stroke:none;" d="M770 393L771 394L770 393z"/>
<path style="fill:#bf500a; stroke:none;" d="M254 394L255 395L254 394z"/>
<path style="fill:#a2a1a4; stroke:none;" d="M770 394L771 395L770 394M253 396L254 397L253 396M771 396L772 397L771 396z"/>
<path style="fill:#ddd3c8; stroke:none;" d="M252.333 397.667L252.667 398.333L252.333 397.667M772 398L773 399L772 398z"/>
<path style="fill:#bf500a; stroke:none;" d="M252 399L253 400L252 399M772 399L773 400L772 399z"/>
<path style="fill:#a2a1a4; stroke:none;" d="M251 401L252 402L251 401M773 401L774 402L773 401z"/>
<path style="fill:#ddd3c8; stroke:none;" d="M250.333 402.667L250.667 403.333L250.333 402.667z"/>
<path style="fill:#bf500a; stroke:none;" d="M773 402L774 403L773 402z"/>
<path style="fill:#ddd3c8; stroke:none;" d="M774 402L775 403L774 402z"/>
<path style="fill:#bf500a; stroke:none;" d="M534.667 403.333L535.333 403.667L534.667 403.333z"/>
<path style="fill:#e58c16; stroke:none;" d="M542 403C537.859 403.086 533.582 403.397 530.004 405.728C520.342 412.021 517.552 427.32 526.329 435.606C533.725 442.588 542.075 440.139 542.907 430C543.205 426.364 543 422.646 543 419C543 413.559 542.681 408.39 542 403z"/>
<path style="fill:#bf500a; stroke:none;" d="M542 403C543.03 416.049 543.459 427.322 540 440C561.519 437.782 560.035 409.253 542 403M250 404L251 405L250 404M531 404L532 405L531 404z"/>
<path style="fill:#a2a1a4; stroke:none;" d="M774 404L775 405L774 404z"/>
<path style="fill:#ddd3c8; stroke:none;" d="M249.333 405.667L249.667 406.333L249.333 405.667z"/>
<path style="fill:#bf500a; stroke:none;" d="M528 406L529 407L528 406z"/>
<path style="fill:#ddd3c8; stroke:none;" d="M248 407L249 408L248 407z"/>
<path style="fill:#bf500a; stroke:none;" d="M527 407L528 408L527 407z"/>
<path style="fill:#a2a1a4; stroke:none;" d="M775 407L776 408L775 407z"/>
<path style="fill:#bf500a; stroke:none;" d="M526 408L527 409L526 408M775 408L776 409L775 408z"/>
<path style="fill:#ddd3c8; stroke:none;" d="M776 408L788 410L788 409L776 408M209 429L210 429C215.548 416.387 228.769 410.273 242 410C229.643 404.817 212.421 417.483 209 429M247 409L244 410L244 411L247 409z"/>
<path style="fill:#a2a1a4; stroke:none;" d="M248 409L249 410L248 409z"/>
<path style="fill:#bf500a; stroke:none;" d="M525 409L526 410L525 409z"/>
<path style="fill:#e58c16; stroke:none;" d="M458 720L443.316 674L436 653L431 642L429 637L426 636L428 630L424 632L423 626L426 627L426 626L422 626L425 621L421 618L423 615L417 615L418 612L422 612L423 606L421 608L413 607L413 606L417 605L418 599L419 599L420 604L431 602L428 606L433 605L433 610L437 607C439.001 614.646 446.052 612.312 451.486 615.296C455.646 617.58 456.816 620.608 462 621L462 624L466 624L466 623L465 614L462 616L459 615L460 609L458 603L460 603L452 592L454 590L453 583L452 581L450 582L451 579L449 580L449 576L448 576L448 579L447 575L444 573L447 573L447 572L445 569L443 566L441 563L438 564L440 561L437 561L438 558L435 558L435 554L433 551L432 550L430 551L427 546L424 542L421 538L418 534C417.177 528.518 412.796 524.509 408 522C407.143 516.728 402.349 510.921 397 510L395 504L392 504C390.919 497.671 381.329 488.081 375 487C369.922 476.111 356.384 468.153 347 461.127C320.319 441.148 290.645 424.882 259 414.333C243.063 409.021 223.857 407.453 212.638 423.004C198.946 441.983 206.267 478.457 208.845 500C216.3 562.299 238.759 626.505 278.003 676C289.119 690.02 303.669 710.662 320 718.821C329.803 723.719 349.118 720 360 720L458 720z"/>
<path style="fill:#bf500a; stroke:none;" d="M248 410L249 411L248 410M524 410L525 411L524 410M775 410L776 411L775 410z"/>
<path style="fill:#e58c16; stroke:none;" d="M525 720L573 720C580.042 689.285 594.791 659.548 609.691 632C637.931 579.792 674.673 532.415 719 492.834C745.706 468.987 779.827 442.62 815 433C800.543 391.3 750.558 418.378 725 431.248C719.16 434.188 713.523 437.555 708 441.053C701.183 445.371 694.635 450.074 688 454.66C623.562 499.197 576.173 568.012 547.4 640C537.593 664.535 526.145 693.332 525 720z"/>
<path style="fill:#ddd3c8; stroke:none;" d="M789 410L789 411L792 411L789 410z"/>
<path style="fill:#bf500a; stroke:none;" d="M250 411L251 412L250 411M772.667 411.333L773.333 411.667L772.667 411.333z"/>
<path style="fill:#ddd3c8; stroke:none;" d="M793.667 411.333L794.333 411.667L793.667 411.333z"/>
<path style="fill:#bf500a; stroke:none;" d="M253 412L254 413L253 412M523 412L524 413L523 412M769 412L770 413L769 412z"/>
<path style="fill:#ddd3c8; stroke:none;" d="M795.667 412.333L796.333 412.667L795.667 412.333z"/>
<path style="fill:#bf500a; stroke:none;" d="M256 413L257 414L256 413M766 413L767 414L766 413z"/>
<path style="fill:#ddd3c8; stroke:none;" d="M797.667 413.333L798.333 413.667L797.667 413.333z"/>
<path style="fill:#bf500a; stroke:none;" d="M259.667 414.333L260.333 414.667L259.667 414.333M522 414L523 415L522 414M762.667 414.333L763.333 414.667L762.667 414.333z"/>
<path style="fill:#ddd3c8; stroke:none;" d="M799.667 414.333L800.333 414.667L799.667 414.333z"/>
<path style="fill:#bf500a; stroke:none;" d="M262.667 415.333L263.333 415.667L262.667 415.333M759.667 415.333L760.333 415.667L759.667 415.333z"/>
<path style="fill:#ddd3c8; stroke:none;" d="M801 415L802 416L801 415z"/>
<path style="fill:#bf500a; stroke:none;" d="M265.667 416.333L266.333 416.667L265.667 416.333M757 416L758 417L757 416z"/>
<path style="fill:#ddd3c8; stroke:none;" d="M803 416L804 417L803 416z"/>
<path style="fill:#bf500a; stroke:none;" d="M268 417L269 418L268 417M521 417L522 418L521 417M754.667 417.333L755.333 417.667L754.667 417.333z"/>
<path style="fill:#ddd3c8; stroke:none;" d="M804 417L805 418L804 417z"/>
<path style="fill:#bf500a; stroke:none;" d="M271 418L272 419L271 418M752 418L753 419L752 418z"/>
<path style="fill:#ddd3c8; stroke:none;" d="M805 418L806 419L805 418z"/>
<path style="fill:#bf500a; stroke:none;" d="M273 419L274 420L273 419M749 419L750 420L749 419z"/>
<path style="fill:#ddd3c8; stroke:none;" d="M806 419L807 420L806 419z"/>
<path style="fill:#bf500a; stroke:none;" d="M276 420L277 421L276 420M747 420L748 421L747 420z"/>
<path style="fill:#ddd3c8; stroke:none;" d="M808.333 420.667L808.667 421.333L808.333 420.667z"/>
<path style="fill:#bf500a; stroke:none;" d="M278 421L279 422L278 421M745 421L746 422L745 421M280 422L281 423L280 422M742 422L743 423L742 422z"/>
<path style="fill:#ddd3c8; stroke:none;" d="M809 422L810 423L809 422z"/>
<path style="fill:#bf500a; stroke:none;" d="M282.667 423.333L283.333 423.667L282.667 423.333M740 423L741 424L740 423z"/>
<path style="fill:#ddd3c8; stroke:none;" d="M810 423L811 424L810 423z"/>
<path style="fill:#bf500a; stroke:none;" d="M285 424L286 425L285 424M738 424L739 425L738 424z"/>
<path style="fill:#ddd3c8; stroke:none;" d="M811.333 424.667L811.667 425.333L811.333 424.667z"/>
<path style="fill:#bf500a; stroke:none;" d="M287 425L288 426L287 425M736 425L737 426L736 425M289 426L290 427L289 426M734 426L735 427L734 426z"/>
<path style="fill:#ddd3c8; stroke:none;" d="M812 426L813 427L812 426z"/>
<path style="fill:#bf500a; stroke:none;" d="M291 427L292 428L291 427M521 427L522 428L521 427M732 427L733 428L732 427M293 428L294 429L293 428M730 428L731 429L730 428z"/>
<path style="fill:#ddd3c8; stroke:none;" d="M813 428L814 429L813 428z"/>
<path style="fill:#bf500a; stroke:none;" d="M295 429L296 430L295 429M728 429L729 430L728 429z"/>
<path style="fill:#ddd3c8; stroke:none;" d="M208.333 430.667L208.667 431.333L208.333 430.667z"/>
<path style="fill:#bf500a; stroke:none;" d="M297 430L298 431L297 430M522 430L523 431L522 430M726 430L727 431L726 430z"/>
<path style="fill:#ddd3c8; stroke:none;" d="M814 430L815 431L814 430z"/>
<path style="fill:#bf500a; stroke:none;" d="M299 431L300 432L299 431M724 431L725 432L724 431z"/>
<path style="fill:#a2a1a4; stroke:none;" d="M814 431L815 432L814 431z"/>
<path style="fill:#ddd3c8; stroke:none;" d="M207 432L207 436L208 436L207 432z"/>
<path style="fill:#bf500a; stroke:none;" d="M301 432L302 433L301 432M523 432L524 433L523 432M722 432L723 433L722 432z"/>
<path style="fill:#ddd3c8; stroke:none;" d="M815.333 432.667L815.667 433.333L815.333 432.667z"/>
<path style="fill:#bf500a; stroke:none;" d="M303 433L304 434L303 433M524 433L525 434L524 433M720 433L721 434L720 433M573 720L661 720C672.259 720 689.441 723.241 700 719.258C713.109 714.314 726.213 696.361 735.13 686C767.288 648.637 789.158 604.2 802.709 557C811.435 526.608 815.661 495.469 817.039 464C817.3 458.053 820.547 437.925 814.411 434.132C809.919 431.356 797.107 439.7 793 441.753C771.395 452.554 750.646 465.505 732 480.92C677.498 525.977 633.35 582.807 601.753 646C590.456 668.595 576.715 694.754 573 720M305 434L306 435L305 434M307 435L308 436L307 435M717 435L718 436L717 435z"/>
<path style="fill:#ddd3c8; stroke:none;" d="M816 435L816 438L817 438L816 435z"/>
<path style="fill:#bf500a; stroke:none;" d="M309 436L310 437L309 436M715 436L716 437L715 436z"/>
<path style="fill:#ddd3c8; stroke:none;" d="M206 437L206 443L207 443L206 437z"/>
<path style="fill:#bf500a; stroke:none;" d="M310 437L311 438L310 437M528 437L529 438L528 437M312 438L313 439L312 438M530 438L531 439L530 438M712 438L713 439L712 438z"/>
<path style="fill:#e58c16; stroke:none;" d="M816 438L817 439L816 438z"/>
<path style="fill:#bf500a; stroke:none;" d="M314 439L315 440L314 439M532.667 439.333L533.333 439.667L532.667 439.333M710 439L711 440L710 439M537.667 440.333L538.333 440.667L537.667 440.333z"/>
<path style="fill:#ddd3c8; stroke:none;" d="M817 440L817 445L818 445L817 440z"/>
<path style="fill:#bf500a; stroke:none;" d="M317 441L318 442L317 441M707 441L708 442L707 441M319 442L320 443L319 442M704 443L705 444L704 443M322 444L323 445L322 444M701 445L702 446L701 445z"/>
<path style="fill:#a2a1a4; stroke:none;" d="M817.333 445.667L817.667 446.333L817.333 445.667z"/>
<path style="fill:#bf500a; stroke:none;" d="M325 446L326 447L325 446M699 446L700 447L699 446z"/>
<path style="fill:#ddd3c8; stroke:none;" d="M205 447L205 469L206 469L205 447z"/>
<path style="fill:#bf500a; stroke:none;" d="M327 447L328 448L327 447M698 447L699 448L698 447z"/>
<path style="fill:#e58c16; stroke:none;" d="M817 447L817 450L818 450L817 447z"/>
<path style="fill:#bf500a; stroke:none;" d="M328 448L329 449L328 448M330 449L331 450L330 449M695 449L696 450L695 449M331 450L332 451L331 450M333 451L334 452L333 451M692 451L693 452L692 451z"/>
<path style="fill:#a2a1a4; stroke:none;" d="M691 452L692 453L691 452z"/>
<path style="fill:#bf500a; stroke:none;" d="M336 453L337 454L336 453M689 453L690 454L689 453M337 454L338 455L337 454M688 454L689 455L688 454M339 455L340 456L339 455M340 456L341 457L340 456M685 456L686 457L685 456M343 458L344 459L343 458M344 459L345 460L344 459M681 459L682 460L681 459z"/>
<path style="fill:#e58c16; stroke:none;" d="M817 459L817 464L818 464L817 459z"/>
<path style="fill:#bf500a; stroke:none;" d="M680 460L681 461L680 460M347 461L348 462L347 461M348 462L349 463L348 462M677 462L678 463L677 462M676 463L677 464L676 463M351 464L352 465L351 464z"/>
<path style="fill:#a2a1a4; stroke:none;" d="M817 464L817 468L818 468L817 464z"/>
<path style="fill:#bf500a; stroke:none;" d="M352 465L353 466L352 465M672 466L673 467L672 466M355 467L356 468L355 467M671 467L672 468L671 467M356 468L357 469L356 468M670 468L671 469L670 468z"/>
<path style="fill:#ddd3c8; stroke:none;" d="M817 468L817 478L818 478L817 468z"/>
<path style="fill:#bf500a; stroke:none;" d="M666 471L667 472L666 471z"/>
<path style="fill:#ddd3c8; stroke:none;" d="M206 472L206 483L207 483L206 472z"/>
<path style="fill:#bf500a; stroke:none;" d="M361 472L362 473L361 472M665 472L666 473L665 472M362 473L363 474L362 473M589 473L590 474L589 473M664 473L665 474L664 473M363 474L364 475L363 474M599 476L600 477L599 476z"/>
<path style="fill:#e58c16; stroke:none;" d="M816 477L816 480L817 480L816 477z"/>
<path style="fill:#bf500a; stroke:none;" d="M369 479L370 480L369 479M657 479L658 480L657 479M370 480L371 481L370 480M601 480L602 481L601 480M656 480L657 481L656 480z"/>
<path style="fill:#a2a1a4; stroke:none;" d="M816.333 480.667L816.667 481.333L816.333 480.667z"/>
<path style="fill:#bf500a; stroke:none;" d="M371 481L372 482L371 481M655 481L656 482L655 481M372 482L373 483L372 482M654 482L655 483L654 482z"/>
<path style="fill:#ddd3c8; stroke:none;" d="M816 482L816 488L817 488L818 482L816 482z"/>
<path style="fill:#bf500a; stroke:none;" d="M373 483L374 484L373 483M653 483L654 484L653 483M374 484L375 485L374 484M375.333 485.667L375.667 486.333L375.333 485.667z"/>
<path style="fill:#ddd3c8; stroke:none;" d="M207 486L207 494L208 494L207 486z"/>
<path style="fill:#bf500a; stroke:none;" d="M600 487L601 488L600 487M377 488L380 491L377 488z"/>
<path style="fill:#e58c16; stroke:none;" d="M815 490L816 491L815 490z"/>
<path style="fill:#a2a1a4; stroke:none;" d="M815.333 491.667L815.667 492.333L815.333 491.667z"/>
<path style="fill:#bf500a; stroke:none;" d="M381 492L392 503L381 492z"/>
<path style="fill:#ddd3c8; stroke:none;" d="M815 493L814 504L815 504L815 493M208 497L208 503L209 503L208 497z"/>
<path style="fill:#e58c16; stroke:none;" d="M814 498L815 499L814 498z"/>
<path style="fill:#a2a1a4; stroke:none;" d="M814.333 499.667L814.667 500.333L814.333 499.667z"/>
<path style="fill:#bf500a; stroke:none;" d="M392 503L394 505L394 503L392 503z"/>
<path style="fill:#ddd3c8; stroke:none;" d="M209 505L209 510L210 510L209 505z"/>
<path style="fill:#bf500a; stroke:none;" d="M394 505L397 507L394 505M496 505L497 506L496 505M508 505L509 506L508 505z"/>
<path style="fill:#a2a1a4; stroke:none;" d="M493 506L494 507L493 506M511 506L512 507L511 506z"/>
<path style="fill:#e58c16; stroke:none;" d="M813 506L814 507L813 506z"/>
<path style="fill:#bf500a; stroke:none;" d="M397 507L397 510L399 509L399 508L397 507M629 507L630 508L629 507z"/>
<path style="fill:#a2a1a4; stroke:none;" d="M813 507L814 508L813 507z"/>
<path style="fill:#bf500a; stroke:none;" d="M515 508L516 509L515 508M628 508L629 509L628 508z"/>
<path style="fill:#ddd3c8; stroke:none;" d="M813 508L813 511L814 511L813 508z"/>
<path style="fill:#bf500a; stroke:none;" d="M399 509L400 510L399 509M627 509L628 510L627 509M400 510L401 511L400 510M486 510L487 511L486 510M626 510L627 511L626 510M399 511L402 514L399 511M625 511L626 512L625 511z"/>
<path style="fill:#ddd3c8; stroke:none;" d="M210 512L210 518L211 518L210 512z"/>
<path style="fill:#bf500a; stroke:none;" d="M624 512L625 513L624 512z"/>
<path style="fill:#e58c16; stroke:none;" d="M812 512L813 513L812 512z"/>
<path style="fill:#ddd3c8; stroke:none;" d="M813 512L812 517L813 517L813 512z"/>
<path style="fill:#a2a1a4; stroke:none;" d="M812 513L813 514L812 513z"/>
<path style="fill:#bf500a; stroke:none;" d="M404 515L405 516L404 515M405 516L406 517L405 516M621 516L622 517L621 516M406 517L407 518L406 517M620 517L621 518L620 517z"/>
<path style="fill:#ddd3c8; stroke:none;" d="M211 518L211 523L212 523L211 518z"/>
<path style="fill:#bf500a; stroke:none;" d="M405 518L408 521L405 518M407 518L408 519L407 518M619 518L620 519L619 518z"/>
<path style="fill:#e58c16; stroke:none;" d="M811 518L812 519L811 518z"/>
<path style="fill:#a2a1a4; stroke:none;" d="M811 519L812 520L811 519z"/>
<path style="fill:#ddd3c8; stroke:none;" d="M811 520L810 528L811 528L811 520z"/>
<path style="fill:#bf500a; stroke:none;" d="M408 521L411 523L408 521M478 522L479 523L478 522M616 522L617 523L616 522M411 523L412 524L411 523M615 523L616 524L615 523z"/>
<path style="fill:#e58c16; stroke:none;" d="M810 523L811 524L810 523z"/>
<path style="fill:#ddd3c8; stroke:none;" d="M212 524L212 528L213 528L212 524z"/>
<path style="fill:#bf500a; stroke:none;" d="M412 524L413 525L412 524M614 524L615 525L614 524M413 527L414 528L413 527M527.333 527.667L527.667 528.333L527.333 527.667M612 527L613 528L612 527M415 528L416 529L415 528M611 528L612 529L611 528z"/>
<path style="fill:#e58c16; stroke:none;" d="M809 528L810 529L809 528z"/>
<path style="fill:#ddd3c8; stroke:none;" d="M213 529L213 533L214 533L213 529z"/>
<path style="fill:#bf500a; stroke:none;" d="M416 529L417 530L416 529z"/>
<path style="fill:#a2a1a4; stroke:none;" d="M527.333 529.667L527.667 530.333L527.333 529.667z"/>
<path style="fill:#bf500a; stroke:none;" d="M610 529L611 530L610 529z"/>
<path style="fill:#a2a1a4; stroke:none;" d="M809 529L810 530L809 529z"/>
<path style="fill:#bf500a; stroke:none;" d="M415 530L418 533L415 530M417 530L418 531L417 530z"/>
<path style="fill:#ddd3c8; stroke:none;" d="M809 530L809 533L810 533L809 530z"/>
<path style="fill:#bf500a; stroke:none;" d="M527 531L528 532L527 531M608 532L609 533L608 532M418.667 533.333L419.333 533.667L418.667 533.333M607 533L608 534L607 533z"/>
<path style="fill:#e58c16; stroke:none;" d="M808 533L809 534L808 533z"/>
<path style="fill:#ddd3c8; stroke:none;" d="M214 534L214 538L215 538L214 534z"/>
<path style="fill:#bf500a; stroke:none;" d="M420 534L421 535L420 534z"/>
<path style="fill:#a2a1a4; stroke:none;" d="M808 534L809 535L808 534z"/>
<path style="fill:#ddd3c8; stroke:none;" d="M809 534L810 535L809 534M808.333 535.667L808.667 536.333L808.333 535.667z"/>
<path style="fill:#bf500a; stroke:none;" d="M420 536L421 537L420 536M478 536L479 537L478 536M605 536L606 537L605 536M421.667 537.333L422.333 537.667L421.667 537.333M604 537L605 538L604 537z"/>
<path style="fill:#ddd3c8; stroke:none;" d="M215 538L215 542L216 542L215 538z"/>
<path style="fill:#bf500a; stroke:none;" d="M423 538L424 539L423 538z"/>
<path style="fill:#a2a1a4; stroke:none;" d="M807 538L808 539L807 538M479 539L480 540L479 539z"/>
<path style="fill:#ddd3c8; stroke:none;" d="M807 539L806 545L807 545L807 539z"/>
<path style="fill:#bf500a; stroke:none;" d="M423 540L424 541L423 540M602 540L603 541L602 540M424 541L427 543L424 541M601 541L602 542L601 541z"/>
<path style="fill:#ddd3c8; stroke:none;" d="M216 542L216 546L217 546L216 542z"/>
<path style="fill:#e58c16; stroke:none;" d="M806 542L807 543L806 542z"/>
<path style="fill:#a2a1a4; stroke:none;" d="M481 543L482 544L481 543M523 543L524 544L523 543z"/>
<path style="fill:#bf500a; stroke:none;" d="M599 544L600 545L599 544M427.667 545.333L428.333 545.667L427.667 545.333M598 545L599 546L598 545z"/>
<path style="fill:#ddd3c8; stroke:none;" d="M217 546L217 550L218 550L217 546z"/>
<path style="fill:#bf500a; stroke:none;" d="M429 546L430 547L429 546z"/>
<path style="fill:#a2a1a4; stroke:none;" d="M805 546L806 547L805 546z"/>
<path style="fill:#bf500a; stroke:none;" d="M484 547L485 548L484 547M520 547L519 549L520 547M597 547L598 548L597 547z"/>
<path style="fill:#ddd3c8; stroke:none;" d="M805 547L804 553L805 553L805 547z"/>
<path style="fill:#bf500a; stroke:none;" d="M429 548L430 549L429 548M596 548L597 549L596 548M430 549L430 551L432 549L430 549z"/>
<path style="fill:#ddd3c8; stroke:none;" d="M218 550L218 554L219 554L218 550z"/>
<path style="fill:#bf500a; stroke:none;" d="M432 550L433 551L432 550z"/>
<path style="fill:#a2a1a4; stroke:none;" d="M804 550L805 551L804 550z"/>
<path style="fill:#bf500a; stroke:none;" d="M431 551L432 552L431 551M594 551L595 552L594 551M432 552L434 555L432 552M491 552L492 553L491 552z"/>
<path style="fill:#a2a1a4; stroke:none;" d="M511 553L512 554L511 553z"/>
<path style="fill:#ddd3c8; stroke:none;" d="M219 554L219 557L220 557L219 554z"/>
<path style="fill:#bf500a; stroke:none;" d="M508 554L509 555L508 554M592 554L593 555L592 554z"/>
<path style="fill:#ddd3c8; stroke:none;" d="M803 554L802 560L803 560L803 554z"/>
<path style="fill:#bf500a; stroke:none;" d="M434 555L436 558L434 555M591 555L592 556L591 555M590 557L591 558L590 557z"/>
<path style="fill:#e58c16; stroke:none;" d="M802 557L803 558L802 557z"/>
<path style="fill:#ddd3c8; stroke:none;" d="M220 558L220 561L221 561L220 558z"/>
<path style="fill:#bf500a; stroke:none;" d="M436 558L437 559L436 558M589 558L590 559L589 558M437 559L437 561L439 559L437 559z"/>
<path style="fill:#ddd3c8; stroke:none;" d="M221 561L221 564L222 564L221 561z"/>
<path style="fill:#bf500a; stroke:none;" d="M438 561L437 563L438 561M587 561L588 562L587 561z"/>
<path style="fill:#a2a1a4; stroke:none;" d="M801 561L802 562L801 561z"/>
<path style="fill:#bf500a; stroke:none;" d="M438 564L441 562L438 564z"/>
<path style="fill:#ddd3c8; stroke:none;" d="M801 562L800 567L801 567L801 562z"/>
<path style="fill:#bf500a; stroke:none;" d="M586 563L587 564L586 563M440 564L442 567L440 564M585 564L586 565L585 564z"/>
<path style="fill:#e58c16; stroke:none;" d="M800 564L801 565L800 564z"/>
<path style="fill:#ddd3c8; stroke:none;" d="M222.333 565.667L222.667 566.333L222.333 565.667z"/>
<path style="fill:#bf500a; stroke:none;" d="M584 566L585 567L584 566M440.333 567.667L440.667 568.333L440.333 567.667M442 567L444 570L442 567z"/>
<path style="fill:#e58c16; stroke:none;" d="M799 567L800 568L799 567z"/>
<path style="fill:#ddd3c8; stroke:none;" d="M223.333 568.667L223.667 569.333L223.333 568.667M799 568L798 573L799 573L799 568z"/>
<path style="fill:#bf500a; stroke:none;" d="M582 569L583 570L582 569M442 570L442 573L443 573L442 570M444 570L446 573L444 570z"/>
<path style="fill:#ddd3c8; stroke:none;" d="M224 571L224 574L225 574L224 571z"/>
<path style="fill:#bf500a; stroke:none;" d="M581 571L582 572L581 571M580 572L581 573L580 572M444 573L447 575L448 579L448 573L444 573z"/>
<path style="fill:#ddd3c8; stroke:none;" d="M225 574L225 577L226 577L225 574z"/>
<path style="fill:#bf500a; stroke:none;" d="M579 574L580 575L579 574z"/>
<path style="fill:#ddd3c8; stroke:none;" d="M797.333 574.667L797.667 575.333L797.333 574.667z"/>
<path style="fill:#bf500a; stroke:none;" d="M449 576L450 577L449 576M578 576L579 577L578 576z"/>
<path style="fill:#ddd3c8; stroke:none;" d="M226 577L226 580L227 580L226 577z"/>
<path style="fill:#bf500a; stroke:none;" d="M577 577L578 578L577 577z"/>
<path style="fill:#ddd3c8; stroke:none;" d="M796.333 577.667L796.667 578.333L796.333 577.667z"/>
<path style="fill:#bf500a; stroke:none;" d="M449 578L449 580L451 578L449 578M576 579L577 580L576 579z"/>
<path style="fill:#e58c16; stroke:none;" d="M795 579L796 580L795 579z"/>
<path style="fill:#ddd3c8; stroke:none;" d="M227 580L227 583L228 583L227 580z"/>
<path style="fill:#bf500a; stroke:none;" d="M448 580L451 585L448 580M450 580L450 582L452 580L450 580z"/>
<path style="fill:#ddd3c8; stroke:none;" d="M795.333 580.667L795.667 581.333L795.333 580.667z"/>
<path style="fill:#bf500a; stroke:none;" d="M575 581L576 582L575 581M451.667 582.333L452.333 582.667L451.667 582.333z"/>
<path style="fill:#e58c16; stroke:none;" d="M794 582L795 583L794 582z"/>
<path style="fill:#ddd3c8; stroke:none;" d="M228 583L228 586L229 586L228 583z"/>
<path style="fill:#bf500a; stroke:none;" d="M453 583C451.32 586.359 451.496 589.499 454 590L454 591L452 591L452 592L460 603L458 603L460 609L459 615L462 616L465 614C463.668 617.275 463.128 620.525 466 623L466 624L462 624L462 621C457.378 620.285 455.807 617.346 452 615.144C446.232 611.806 440.519 614.249 437 607L433 610L433 605L428 606L431 602C427.411 600.803 422.264 601.169 420 604L419 599L418 599L417 605L413 606L413 607L423 606L422 612L417 615L423 615L421 618L425 621C421.806 621.634 421.522 622.85 422 626L426 626L426 627L423 626L424 632L428 630L426 636L429 637L431 642C430.905 646.309 432.309 650.561 436 653L442.938 674L458 720L505 720L494.333 677L488 664C488.682 659.479 487.947 654.702 484 652C484.603 647.864 483.575 644.362 480 642C480.594 638.606 479.867 633.525 476 633C476.576 628.754 475.676 625.41 472 623L470 619C470.588 615.589 469.815 611.503 466 611C466.383 608.384 466.713 607 464 607L462 598L459 599C460.21 596.681 461.017 595 458 595C458.171 591.209 457.265 589.011 454 587L453 583z"/>
<path style="fill:#ddd3c8; stroke:none;" d="M794 583L794 585L796 583L794 583z"/>
<path style="fill:#bf500a; stroke:none;" d="M406 584L407 585L406 584M573 584L574 585L573 584z"/>
<path style="fill:#a2a1a4; stroke:none;" d="M793 585L794 586L793 585z"/>
<path style="fill:#ddd3c8; stroke:none;" d="M229.333 586.667L229.667 587.333L229.333 586.667z"/>
<path style="fill:#e58c16; stroke:none;" d="M454 586L455 587L454 586z"/>
<path style="fill:#bf500a; stroke:none;" d="M572 586L573 587L572 586z"/>
<path style="fill:#ddd3c8; stroke:none;" d="M793.333 586.667L793.667 587.333L793.333 586.667z"/>
<path style="fill:#bf500a; stroke:none;" d="M410 588L409 591L410 588M571 588L572 589L571 588z"/>
<path style="fill:#ddd3c8; stroke:none;" d="M792.333 588.667L792.667 589.333L792.333 588.667M230.333 589.667L230.667 590.333L230.333 589.667z"/>
<path style="fill:#e58c16; stroke:none;" d="M456 590L457 591L456 590z"/>
<path style="fill:#bf500a; stroke:none;" d="M570 590L571 591L570 590z"/>
<path style="fill:#a2a1a4; stroke:none;" d="M791 590L792 591L791 590z"/>
<path style="fill:#ddd3c8; stroke:none;" d="M231.333 591.667L231.667 592.333L231.333 591.667M791 591L790 595L791 595L791 591z"/>
<path style="fill:#bf500a; stroke:none;" d="M410 592L413 595L410 592z"/>
<path style="fill:#e58c16; stroke:none;" d="M456 592L457 593L456 592z"/>
<path style="fill:#bf500a; stroke:none;" d="M569 592L570 593L569 592z"/>
<path style="fill:#e58c16; stroke:none;" d="M458.333 593.667L458.667 594.333L458.333 593.667z"/>
<path style="fill:#ddd3c8; stroke:none;" d="M232.333 594.667L232.667 595.333L232.333 594.667z"/>
<path style="fill:#bf500a; stroke:none;" d="M406 594L407 595L406 594M408 594L408 599L411 599L414 597L414 602C421.155 598.157 410.153 596.036 408 594M567 595L568 596L567 595z"/>
<path style="fill:#e58c16; stroke:none;" d="M789 595L790 596L789 595z"/>
<path style="fill:#ddd3c8; stroke:none;" d="M233.333 596.667L233.667 597.333L233.333 596.667z"/>
<path style="fill:#e58c16; stroke:none;" d="M458 596L459 597L458 596z"/>
<path style="fill:#ddd3c8; stroke:none;" d="M789 596L790 597L789 596z"/>
<path style="fill:#e58c16; stroke:none;" d="M460 597L459 599L461 599L460 597z"/>
<path style="fill:#bf500a; stroke:none;" d="M566 597L567 598L566 597z"/>
<path style="fill:#e58c16; stroke:none;" d="M415 598L416 599L415 598z"/>
<path style="fill:#ddd3c8; stroke:none;" d="M788.333 598.667L788.667 599.333L788.333 598.667M234.333 599.667L234.667 600.333L234.333 599.667z"/>
<path style="fill:#bf500a; stroke:none;" d="M421 599L421 601L423 601L421 599M456 599L454 602L456 599M565 599L566 600L565 599M410 600L411 601L410 600z"/>
<path style="fill:#a2a1a4; stroke:none;" d="M787 600L788 601L787 600z"/>
<path style="fill:#ddd3c8; stroke:none;" d="M235.333 601.667L235.667 602.333L235.333 601.667z"/>
<path style="fill:#bf500a; stroke:none;" d="M564 601L565 602L564 601z"/>
<path style="fill:#ddd3c8; stroke:none;" d="M787 601L788 602L787 601z"/>
<path style="fill:#bf500a; stroke:none;" d="M412 602L413 603L412 602M563 603L564 604L563 603z"/>
<path style="fill:#ddd3c8; stroke:none;" d="M786.667 603.333L787.333 603.667L786.667 603.333M236.333 604.667L236.667 605.333L236.333 604.667z"/>
<path style="fill:#bf500a; stroke:none;" d="M433 604L435 606L433 604M458 605L459 606L458 605z"/>
<path style="fill:#e58c16; stroke:none;" d="M464.333 605.667L464.667 606.333L464.333 605.667z"/>
<path style="fill:#bf500a; stroke:none;" d="M562 605L563 606L562 605z"/>
<path style="fill:#ddd3c8; stroke:none;" d="M785 605L786 606L785 605M237.333 606.667L237.667 607.333L237.333 606.667z"/>
<path style="fill:#bf500a; stroke:none;" d="M412 607L413 608L412 607M414 608L414 609L417 609L415 612L420 609L420 608L416 607L414 608M561 607L562 608L561 607z"/>
<path style="fill:#e58c16; stroke:none;" d="M784 607L785 608L784 607z"/>
<path style="fill:#ddd3c8; stroke:none;" d="M238.333 608.667L238.667 609.333L238.333 608.667M784 608L785 609L784 608z"/>
<path style="fill:#bf500a; stroke:none;" d="M438 609L439 610L438 609z"/>
<path style="fill:#e58c16; stroke:none;" d="M466.333 609.667L466.667 610.333L466.333 609.667z"/>
<path style="fill:#bf500a; stroke:none;" d="M560.333 609.667L560.667 610.333L560.333 609.667z"/>
<path style="fill:#a2a1a4; stroke:none;" d="M783 609L784 610L783 609z"/>
<path style="fill:#ddd3c8; stroke:none;" d="M239.333 610.667L239.667 611.333L239.333 610.667z"/>
<path style="fill:#e58c16; stroke:none;" d="M424 610L425 611L424 610M463 610L464 611L463 610z"/>
<path style="fill:#ddd3c8; stroke:none;" d="M783 610L784 611L783 610z"/>
<path style="fill:#bf500a; stroke:none;" d="M419 611L420 612L419 611M441 611L442 612L441 611z"/>
<path style="fill:#e58c16; stroke:none;" d="M461 611L464 613L464 612L461 611M782 611L783 612L782 611M466 612L467 613L466 612z"/>
<path style="fill:#bf500a; stroke:none;" d="M559 612L560 613L559 612z"/>
<path style="fill:#ddd3c8; stroke:none;" d="M782 612L783 613L782 612M240.333 613.667L240.667 614.333L240.333 613.667z"/>
<path style="fill:#bf500a; stroke:none;" d="M445 613L446 614L445 613z"/>
<path style="fill:#e58c16; stroke:none;" d="M781 613L782 614L781 613M468 614L469 615L468 614z"/>
<path style="fill:#bf500a; stroke:none;" d="M558 614L559 615L558 614z"/>
<path style="fill:#ddd3c8; stroke:none;" d="M781 614L782 615L781 614M241.333 615.667L241.667 616.333L241.333 615.667z"/>
<path style="fill:#bf500a; stroke:none;" d="M416 615L417 616L416 615M419 615L418 617L419 615M459 616L463 618L463 617L459 616M557 616L558 617L557 616z"/>
<path style="fill:#ddd3c8; stroke:none;" d="M780 616L781 617L780 616M242.333 617.667L242.667 618.333L242.333 617.667z"/>
<path style="fill:#e58c16; stroke:none;" d="M427 617L428 618L427 617z"/>
<path style="fill:#bf500a; stroke:none;" d="M457 617L457 620L458 620L457 617M420 618L422 620L420 618z"/>
<path style="fill:#e58c16; stroke:none;" d="M465 618L465 621L466 621L465 618M467 618L468 619L467 618M470 618L471 619L470 618z"/>
<path style="fill:#bf500a; stroke:none;" d="M556 618L557 619L556 618z"/>
<path style="fill:#ddd3c8; stroke:none;" d="M779 618L780 619L779 618M243.333 619.667L243.667 620.333L243.333 619.667z"/>
<path style="fill:#bf500a; stroke:none;" d="M555 620L556 621L555 620z"/>
<path style="fill:#ddd3c8; stroke:none;" d="M778 620L779 621L778 620M244.333 621.667L244.667 622.333L244.333 621.667z"/>
<path style="fill:#e58c16; stroke:none;" d="M423 622L422 624L423 622M472 622L473 623L472 622z"/>
<path style="fill:#bf500a; stroke:none;" d="M554.333 622.667L554.667 623.333L554.333 622.667z"/>
<path style="fill:#ddd3c8; stroke:none;" d="M777 622L779 624L779 622L777 622M245.333 623.667L245.667 624.333L245.333 623.667z"/>
<path style="fill:#e58c16; stroke:none;" d="M425 623L426 624L425 623M467 623L468 624L467 623z"/>
<path style="fill:#ddd3c8; stroke:none;" d="M776 624L777 625L776 624M246.333 625.667L246.667 626.333L246.333 625.667z"/>
<path style="fill:#e58c16; stroke:none;" d="M427 625L428 626L427 625z"/>
<path style="fill:#bf500a; stroke:none;" d="M553 625L554 626L553 625z"/>
<path style="fill:#ddd3c8; stroke:none;" d="M775 626L776 627L775 626M247.333 627.667L247.667 628.333L247.333 627.667z"/>
<path style="fill:#e58c16; stroke:none;" d="M474 627L475 628L474 627z"/>
<path style="fill:#bf500a; stroke:none;" d="M552 627L553 628L552 627z"/>
<path style="fill:#e58c16; stroke:none;" d="M425 628L426 629L425 628z"/>
<path style="fill:#ddd3c8; stroke:none;" d="M774 628L775 629L774 628M248.333 629.667L248.667 630.333L248.333 629.667z"/>
<path style="fill:#bf500a; stroke:none;" d="M551 629L552 630L551 629z"/>
<path style="fill:#a2a1a4; stroke:none;" d="M773 629L774 630L773 629z"/>
<path style="fill:#ddd3c8; stroke:none;" d="M773 630L774 631L773 630M249.333 631.667L249.667 632.333L249.333 631.667z"/>
<path style="fill:#e58c16; stroke:none;" d="M471 631L472 632L471 631M476.333 631.667L476.667 632.333L476.333 631.667M772 631L773 632L772 631z"/>
<path style="fill:#bf500a; stroke:none;" d="M550 632L551 633L550 632z"/>
<path style="fill:#ddd3c8; stroke:none;" d="M772 632L773 633L772 632M250.333 633.667L250.667 634.333L250.333 633.667z"/>
<path style="fill:#a2a1a4; stroke:none;" d="M771 633L772 634L771 633z"/>
<path style="fill:#bf500a; stroke:none;" d="M549 634L550 635L549 634z"/>
<path style="fill:#ddd3c8; stroke:none;" d="M251.333 635.667L251.667 636.333L251.333 635.667M770 635L771 636L770 635z"/>
<path style="fill:#e58c16; stroke:none;" d="M430 636L431 637L430 636z"/>
<path style="fill:#bf500a; stroke:none;" d="M548.333 636.667L548.667 637.333L548.333 636.667z"/>
<path style="fill:#ddd3c8; stroke:none;" d="M252.333 637.667L252.667 638.333L252.333 637.667z"/>
<path style="fill:#bf500a; stroke:none;" d="M427 637L428 638L427 637z"/>
<path style="fill:#ddd3c8; stroke:none;" d="M769.667 637.333L770.333 637.667L769.667 637.333M253.333 639.667L253.667 640.333L253.333 639.667z"/>
<path style="fill:#e58c16; stroke:none;" d="M430 639L431 640L430 639z"/>
<path style="fill:#bf500a; stroke:none;" d="M547 639L548 640L547 639z"/>
<path style="fill:#ddd3c8; stroke:none;" d="M768 639L769 640L768 639z"/>
<path style="fill:#a2a1a4; stroke:none;" d="M767 640L768 641L767 640z"/>
<path style="fill:#ddd3c8; stroke:none;" d="M254 641L255 642L254 641z"/>
<path style="fill:#e58c16; stroke:none;" d="M480 641L481 642L480 641z"/>
<path style="fill:#bf500a; stroke:none;" d="M546.333 641.667L546.667 642.333L546.333 641.667z"/>
<path style="fill:#ddd3c8; stroke:none;" d="M255.333 642.667L255.667 643.333L255.333 642.667z"/>
<path style="fill:#a2a1a4; stroke:none;" d="M766 642L767 643L766 642z"/>
<path style="fill:#ddd3c8; stroke:none;" d="M256.333 644.667L256.667 645.333L256.333 644.667z"/>
<path style="fill:#bf500a; stroke:none;" d="M545 644L546 645L545 644z"/>
<path style="fill:#ddd3c8; stroke:none;" d="M765 644L766 645L765 644z"/>
<path style="fill:#e58c16; stroke:none;" d="M764 645L765 646L764 645z"/>
<path style="fill:#ddd3c8; stroke:none;" d="M257 646L258 647L257 646z"/>
<path style="fill:#bf500a; stroke:none;" d="M544.333 646.667L544.667 647.333L544.333 646.667z"/>
<path style="fill:#ddd3c8; stroke:none;" d="M764 646L765 647L764 646z"/>
<path style="fill:#a2a1a4; stroke:none;" d="M763 647L764 648L763 647z"/>
<path style="fill:#ddd3c8; stroke:none;" d="M258 648L259 649L258 648M259.333 649.667L259.667 650.333L259.333 649.667z"/>
<path style="fill:#bf500a; stroke:none;" d="M543.333 649.667L543.667 650.333L543.333 649.667z"/>
<path style="fill:#ddd3c8; stroke:none;" d="M762 649L763 650L762 649z"/>
<path style="fill:#a2a1a4; stroke:none;" d="M761 650L762 651L761 650z"/>
<path style="fill:#ddd3c8; stroke:none;" d="M260 651L261 652L260 651z"/>
<path style="fill:#e58c16; stroke:none;" d="M484 651L485 652L484 651z"/>
<path style="fill:#ddd3c8; stroke:none;" d="M761 651L762 652L761 651M261.333 652.667L261.667 653.333L261.333 652.667z"/>
<path style="fill:#bf500a; stroke:none;" d="M542 652L543 653L542 652z"/>
<path style="fill:#ddd3c8; stroke:none;" d="M760 652L761 653L760 652z"/>
<path style="fill:#a2a1a4; stroke:none;" d="M759 653L760 654L759 653z"/>
<path style="fill:#ddd3c8; stroke:none;" d="M262 654L263 655L262 654z"/>
<path style="fill:#a2a1a4; stroke:none;" d="M263 655L264 656L263 655z"/>
<path style="fill:#bf500a; stroke:none;" d="M541 655L542 656L541 655z"/>
<path style="fill:#ddd3c8; stroke:none;" d="M758 655L759 656L758 655M263 656L264 657L263 656z"/>
<path style="fill:#a2a1a4; stroke:none;" d="M757 656L758 657L757 656z"/>
<path style="fill:#ddd3c8; stroke:none;" d="M264 657L265 658L264 657M758 657L759 658L758 657z"/>
<path style="fill:#a2a1a4; stroke:none;" d="M265 658L266 659L265 658z"/>
<path style="fill:#bf500a; stroke:none;" d="M540 658L541 659L540 658z"/>
<path style="fill:#ddd3c8; stroke:none;" d="M756 658L757 659L756 658M265 659L266 660L265 659z"/>
<path style="fill:#a2a1a4; stroke:none;" d="M755 659L756 660L755 659z"/>
<path style="fill:#ddd3c8; stroke:none;" d="M266 660L267 661L266 660M267.333 661.667L267.667 662.333L267.333 661.667z"/>
<path style="fill:#bf500a; stroke:none;" d="M539 661L540 662L539 661z"/>
<path style="fill:#ddd3c8; stroke:none;" d="M754.667 661.333L755.333 661.667L754.667 661.333z"/>
<path style="fill:#e58c16; stroke:none;" d="M488.333 662.667L488.667 663.333L488.333 662.667z"/>
<path style="fill:#ddd3c8; stroke:none;" d="M753 662L754 663L753 662M268 663L269 664L268 663M269 664L270 665L269 664z"/>
<path style="fill:#bf500a; stroke:none;" d="M538 664L539 665L538 664z"/>
<path style="fill:#ddd3c8; stroke:none;" d="M751 666L754 664L751 666M270 666L271 667L270 666z"/>
<path style="fill:#e58c16; stroke:none;" d="M750 666L751 667L750 666z"/>
<path style="fill:#ddd3c8; stroke:none;" d="M271 667L272 668L271 667z"/>
<path style="fill:#bf500a; stroke:none;" d="M537 667L538 668L537 667z"/>
<path style="fill:#ddd3c8; stroke:none;" d="M272.333 668.667L272.667 669.333L272.333 668.667M748 669L748 671L750 669L748 669M273 670L274 671L273 670z"/>
<path style="fill:#bf500a; stroke:none;" d="M536 670L537 671L536 670z"/>
<path style="fill:#a2a1a4; stroke:none;" d="M747 670L748 671L747 670z"/>
<path style="fill:#ddd3c8; stroke:none;" d="M274 671L275 672L274 671M275 672L276 673L275 672M744 676L748 672L744 676z"/>
<path style="fill:#bf500a; stroke:none;" d="M535 673L536 674L535 673z"/>
<path style="fill:#ddd3c8; stroke:none;" d="M276 674L277 675L276 674M277 675L277 677L279 677L277 675z"/>
<path style="fill:#a2a1a4; stroke:none;" d="M743 675L744 676L743 675z"/>
<path style="fill:#bf500a; stroke:none;" d="M534.333 676.667L534.667 677.333L534.333 676.667z"/>
<path style="fill:#a2a1a4; stroke:none;" d="M279 677L280 678L279 677z"/>
<path style="fill:#ddd3c8; stroke:none;" d="M743 677L744 678L743 677M279 678L280 679L279 678M741 678L740 682L741 682L741 678M280 679L281 680L280 679M281 680L282 681L281 680z"/>
<path style="fill:#bf500a; stroke:none;" d="M533 680L534 681L533 680z"/>
<path style="fill:#a2a1a4; stroke:none;" d="M739 680L740 681L739 680z"/>
<path style="fill:#ddd3c8; stroke:none;" d="M282 681L283 682L282 681M283.333 682.667L283.667 683.333L283.333 682.667M738 682L736 685L738 682z"/>
<path style="fill:#bf500a; stroke:none;" d="M532.333 683.667L532.667 684.333L532.333 683.667z"/>
<path style="fill:#ddd3c8; stroke:none;" d="M284 684L285 685L284 684M285 685L286 686L285 685M735 685L736 686L735 685M286 686L287 687L286 686M734 686L735 687L734 686M287 687L287 689L289 689L287 687z"/>
<path style="fill:#e58c16; stroke:none;" d="M496 687L497 688L496 687z"/>
<path style="fill:#bf500a; stroke:none;" d="M531 687L532 688L531 687z"/>
<path style="fill:#a2a1a4; stroke:none;" d="M733 687L734 688L733 687z"/>
<path style="fill:#ddd3c8; stroke:none;" d="M289.333 689.667L289.667 690.333L289.333 689.667M733 689L734 690L733 689z"/>
<path style="fill:#bf500a; stroke:none;" d="M530.333 690.667L530.667 691.333L530.333 690.667z"/>
<path style="fill:#ddd3c8; stroke:none;" d="M731 690L727 695L731 690M290 691L291 692L290 691M291 692L292 693L291 692M292 693L293 694L292 693M293 694L294 695L293 694z"/>
<path style="fill:#bf500a; stroke:none;" d="M529.333 694.667L529.667 695.333L529.333 694.667z"/>
<path style="fill:#ddd3c8; stroke:none;" d="M294 695L295 696L294 695M726 695L727 696L726 695M295 696L296 697L295 696z"/>
<path style="fill:#a2a1a4; stroke:none;" d="M725 696L726 697L725 696z"/>
<path style="fill:#ddd3c8; stroke:none;" d="M296 697L297 698L296 697z"/>
<path style="fill:#a2a1a4; stroke:none;" d="M724 697L725 698L724 697z"/>
<path style="fill:#ddd3c8; stroke:none;" d="M726 697L727 698L726 697M297 698L298 699L297 698z"/>
<path style="fill:#bf500a; stroke:none;" d="M528.333 698.667L528.667 699.333L528.333 698.667z"/>
<path style="fill:#e58c16; stroke:none;" d="M723 698L724 699L723 698z"/>
<path style="fill:#ddd3c8; stroke:none;" d="M298 699L299 700L298 699z"/>
<path style="fill:#a2a1a4; stroke:none;" d="M722 699L723 700L722 699z"/>
<path style="fill:#ddd3c8; stroke:none;" d="M722 702L725 699L722 702M299 700L300 701L299 700M300 701L301 702L300 701M301 702L302 703L301 702z"/>
<path style="fill:#e58c16; stroke:none;" d="M719 702L720 703L719 702z"/>
<path style="fill:#ddd3c8; stroke:none;" d="M302 703L303 704L302 703z"/>
<path style="fill:#bf500a; stroke:none;" d="M527 703L528 704L527 703z"/>
<path style="fill:#a2a1a4; stroke:none;" d="M718 703L717 705L718 703z"/>
<path style="fill:#ddd3c8; stroke:none;" d="M718 706L721 703L718 706M303 704L304 705L303 704M304 705L305 706L304 705z"/>
<path style="fill:#a2a1a4; stroke:none;" d="M716 705L715 707L716 705z"/>
<path style="fill:#ddd3c8; stroke:none;" d="M305 706L306 707L305 706M716 706L717 707L716 706M306 707L307 708L306 707z"/>
<path style="fill:#bf500a; stroke:none;" d="M526.333 707.667L526.667 708.333L526.333 707.667z"/>
<path style="fill:#ddd3c8; stroke:none;" d="M714 707L713 709L715 709L714 707M307 708L308 709L307 708M308 709L309 710L308 709M712 709L708 715L712 709M309 710L310 711L309 710M310 711L313 713L310 711z"/>
<path style="fill:#bf500a; stroke:none;" d="M525 712L525 715L526 715L525 712z"/>
<path style="fill:#ddd3c8; stroke:none;" d="M313 713L313 715L315 715L313 713z"/>
<path style="fill:#e58c16; stroke:none;" d="M706 714L707 715L706 714z"/>
<path style="fill:#ddd3c8; stroke:none;" d="M315 715L315 717L317 717L315 715z"/>
<path style="fill:#a2a1a4; stroke:none;" d="M705 715L706 716L705 715z"/>
<path style="fill:#ddd3c8; stroke:none;" d="M702 720L706 716L702 720M317 717L318 718L317 717z"/>
<path style="fill:#bf500a; stroke:none;" d="M524 717L524 720L525 720L524 717z"/>
<path style="fill:#ddd3c8; stroke:none;" d="M318 718L319 719L318 718M319 719L319 720C344.162 736.666 364.835 759.079 394 769.459C422.385 779.561 455.996 774.849 485.576 774.849L567 775C582.05 775 598.251 776.636 613 773.101C635.724 767.655 655.385 754.747 674 741.151C682.62 734.855 693.2 728.234 700 720L627 720L476 720L373 720L319 719z"/>
<path style="fill:#a2a1a4; stroke:none;" d="M700 719L701 720L700 719M696 720L696 721L699 721L696 720z"/>
<path style="fill:#ddd3c8; stroke:none;" d="M581 930L582 931L581 930z"/>
</svg>
